<?xml version="1.0" encoding="UTF-8" standalone="no"?>
<!-- Created with Inkscape (http://www.inkscape.org/) -->

<svg
   xmlns:dc="http://purl.org/dc/elements/1.1/"
   xmlns:cc="http://creativecommons.org/ns#"
   xmlns:rdf="http://www.w3.org/1999/02/22-rdf-syntax-ns#"
   xmlns:svg="http://www.w3.org/2000/svg"
   xmlns="http://www.w3.org/2000/svg"
   xmlns:xlink="http://www.w3.org/1999/xlink"
   xmlns:sodipodi="http://sodipodi.sourceforge.net/DTD/sodipodi-0.dtd"
   xmlns:inkscape="http://www.inkscape.org/namespaces/inkscape"
   width="93.049004mm"
   height="77.985001mm"
   viewBox="0 0 93.049004 77.985001"
   version="1.1"
   id="svg8405"
   sodipodi:docname="Logo_texte_white_final.svg"
   inkscape:version="0.92.3 (2405546, 2018-03-11)">
  <defs
     id="defs8399">
    <linearGradient
       inkscape:collect="always"
       xlink:href="#linearGradient2930-5"
       id="linearGradient3139-8"
       gradientUnits="userSpaceOnUse"
       gradientTransform="matrix(0.48523472,0,0,0.51097375,108.29861,243.7676)"
       x1="-223.18843"
       y1="7.5094104"
       x2="-31.426975"
       y2="7.5094104" />
    <linearGradient
       inkscape:collect="always"
       id="linearGradient2930-5">
      <stop
         style="stop-color:#1fa3f3;stop-opacity:1"
         offset="0"
         id="stop2926" />
      <stop
         style="stop-color:#74fbff;stop-opacity:1"
         offset="1"
         id="stop2928" />
    </linearGradient>
  </defs>
  <sodipodi:namedview
     id="base"
     pagecolor="#ffffff"
     bordercolor="#666666"
     borderopacity="1.0"
     inkscape:pageopacity="0.0"
     inkscape:pageshadow="2"
     inkscape:zoom="0.7"
     inkscape:cx="324.44027"
     inkscape:cy="210.95192"
     inkscape:document-units="mm"
     inkscape:current-layer="layer1"
     showgrid="false"
     inkscape:window-width="1920"
     inkscape:window-height="1017"
     inkscape:window-x="-8"
     inkscape:window-y="-8"
     inkscape:window-maximized="1" />
  <metadata
     id="metadata8402">
    <rdf:RDF>
      <cc:Work
         rdf:about="">
        <dc:format>image/svg+xml</dc:format>
        <dc:type
           rdf:resource="http://purl.org/dc/dcmitype/StillImage" />
        <dc:title></dc:title>
      </cc:Work>
    </rdf:RDF>
  </metadata>
  <g
     inkscape:label="Calque 1"
     inkscape:groupmode="layer"
     id="layer1"
     transform="translate(0,-219.015)">
    <g
       id="g9047">
      <path
         inkscape:connector-curvature="0"
         id="path2902-2-4"
         d="m 46.606671,219.015 c -0.60606,0.0131 -1.47901,0.35962 -2.07723,0.89884 -1.3549,1.22125 -1.62276,3.2589 -0.63466,4.8298 l 0.38941,0.61867 -2.65695,5.41018 -2.657241,5.40992 h -0.43929 c -0.24165,0 -0.88502,0.15418 -1.42978,0.34274 l -0.99075,0.34301 -7.119602,-3.58769 c -3.915881,-1.97315 -7.128873,-3.58743 -7.139891,-3.58743 -0.01039,0 -0.05865,-0.34513 -0.105428,-0.76681 -0.170051,-1.5244 -0.965944,-2.72872 -2.235461,-3.38278 -1.873368,-0.96517 -4.235997,-0.067 -5.190566,1.973 -0.413323,0.88328 -0.412521,2.66712 0.0014,3.49105 0.692603,1.37833 1.811418,2.18713 3.186052,2.30333 1.075544,0.0909 1.828286,-0.14382 2.748732,-0.85738 l 0.743491,-0.57643 6.695549,3.34925 c 3.682632,1.84209 6.755044,3.41187 6.827724,3.48841 0.0906,0.0954 0.0889,0.30377 -0.006,0.66251 -0.200696,0.76166 -0.170062,2.10834 0.0647,2.83672 0.16165,0.50142 0.17277,0.69471 0.0535,0.92947 -0.0827,0.16302 -1.731392,1.96025 -3.663472,3.9938 l -3.512759,3.69726 -0.616859,-0.35066 c -0.961207,-0.54641 -1.901001,-0.78232 -3.111573,-0.78028 -1.306239,0.002 -2.135765,0.21301 -3.211874,0.81698 -0.859981,0.48268 -2.060643,1.63725 -2.38113,2.28987 -0.109883,0.22372 -0.259546,0.40666 -0.332752,0.40666 -0.157845,0 -10.130304,-4.58554 -10.337754,-4.7535 -0.07843,-0.0635 -0.175152,-0.445 -0.214641,-0.84787 -0.08611,-0.87865 -0.4915,-1.89536 -0.965652,-2.4211 -1.438551,-1.59512 -3.801417,-1.6239 -5.282337,-0.0644 -1.352868,1.42464 -1.336256,3.71304 0.03816,5.20765 0.547509,0.59542 0.793649,0.7554 1.431544,0.93157 1.112415,0.30725 1.978119,0.18456 2.893426,-0.41033 0.407058,-0.26459 0.813167,-0.48111 0.902457,-0.48111 0.199372,0 10.64822,4.70801 10.872098,4.89871 0.09785,0.0834 0.160489,0.47064 0.160489,0.99205 0,1.66867 0.550394,3.34554 1.468138,4.47305 0.25169,0.30925 0.457632,0.70576 0.457632,0.88089 0,0.2025 -0.98461,1.72069 -2.703859,4.1694 -3.256451,4.63817 -3.22117,4.59478 -3.720409,4.59478 -0.213558,0 -0.600093,0.0931 -0.858838,0.20707 -2.422811,1.06602 -2.550928,4.09831 -0.227412,5.38273 h 2.37e-4 c 0.211851,0.11711 0.705849,0.21507 1.098041,0.21821 0.570737,0.006 0.82957,-0.0723 1.296394,-0.38394 1.393551,-0.93064 1.802508,-2.48108 1.021821,-3.87446 -0.148951,-0.2659 -0.270817,-0.56658 -0.270817,-0.66831 0,-0.18936 5.185057,-7.72444 5.706614,-8.29311 l 0.288354,-0.31451 0.950352,0.31422 c 1.791461,0.59226 3.695645,0.30629 5.250991,-0.78844 1.170742,-0.82402 1.247749,-0.86281 1.498994,-0.75811 0.491592,0.20478 6.334516,4.56977 6.399456,4.78069 0.0367,0.1188 -0.0217,0.58346 -0.13231,1.03271 -0.15567,0.63959 -0.1695,0.95438 -0.064,1.45045 0.29911,1.40537 1.11825,2.5284 2.33854,3.2064 0.80995,0.45005 2.35815,0.44183 3.24394,-0.0171 0.84174,-0.43618 1.617561,-1.27069 2.025581,-2.17899 l 0.33051,-0.73564 1.19884,-0.42512 c 1.31516,-0.46639 7.74445,-2.80712 11.25349,-4.09706 1.22284,-0.44951 2.36214,-0.81723 2.5316,-0.81723 0.22321,0 0.45488,0.2045 0.84078,0.74278 0.67124,0.93621 1.77642,1.71991 2.86257,2.0295 1.00997,0.28789 1.69311,0.21821 2.81747,-0.28703 1.58407,-0.71178 1.27028,-0.88837 4.83674,2.72187 l 3.14542,3.18395 0.0912,0.73355 c 0.11953,0.96369 0.48231,1.68535 1.14946,2.28669 0.95187,0.85799 1.94237,0.91682 2.90122,0.17194 1.62993,-1.26635 1.60663,-3.23319 -0.0529,-4.46143 -0.72291,-0.53503 -1.51862,-0.62091 -2.25902,-0.24334 -1.08766,0.55444 -1.0193,0.59771 -4.27407,-2.69651 -3.35504,-3.39561 -3.24085,-3.18852 -2.69768,-4.89241 0.39387,-1.23558 0.40585,-1.69855 0.0738,-2.82403 -0.47681,-1.61564 -1.585,-2.90811 -2.95587,-3.44694 -0.31777,-0.12481 -0.64336,-0.2934 -0.72343,-0.37445 -0.10394,-0.1051 -0.17058,-2.70911 -0.23351,-9.08579 l -0.0882,-8.93845 0.71313,-0.42381 c 0.39217,-0.23305 0.89733,-0.4238 1.12261,-0.4238 0.30406,0 1.0405,0.42431 2.85834,1.64637 5.96031,4.00688 8.53938,5.82077 8.6103,6.05605 0.0722,0.239 0.80599,0.99304 1.25376,1.28806 0.11286,0.0744 1.90246,2.59912 3.97693,5.6106 2.07447,3.01145 4.18736,6.06779 4.69533,6.79197 0.82686,1.17875 0.92378,1.38113 0.92378,1.931 0,1.24744 0.76046,2.22784 1.72819,2.22784 0.39012,0 0.57995,-0.10053 0.97466,-0.51623 0.65672,-0.69157 0.75151,-1.13677 0.39342,-1.84758 -0.33403,-0.66309 -0.75792,-0.94861 -1.59804,-1.07656 -0.72928,-0.1111 0.1828,1.12722 -8.45384,-11.47705 -1.08798,-1.58776 -1.22154,-2.06285 -0.80843,-2.87897 0.13721,-0.27098 0.1725,-0.57771 0.11775,-1.0211 -0.0431,-0.34848 -0.0304,-0.71933 0.0285,-0.82437 0.0955,-0.16987 3.05926,-2.92407 6.81796,-6.33569 1.48905,-1.35155 1.68286,-1.41367 2.64641,-0.84655 0.83121,0.48919 1.534,0.47849 2.40851,-0.0373 0.87479,-0.51591 1.5223,-1.55448 1.5223,-2.4417 0,-1.43027 -1.39706,-2.89588 -2.76027,-2.89588 -1.41647,0 -2.76027,1.53611 -2.76027,3.15544 0,0.25599 -0.0722,0.55833 -0.16057,0.67175 -0.0882,0.11342 -2.09708,1.97129 -4.4639,4.12847 -3.31255,3.01914 -4.40621,3.9428 -4.75021,4.01149 -0.24573,0.0491 -0.61247,0.18011 -0.81473,0.29125 -0.82415,0.45285 -0.97939,0.37759 -5.2485,-2.54495 -2.20695,-1.51084 -4.51803,-3.1018 -5.13589,-3.5354 l -1.12336,-0.78846 -2.4e-4,-0.95983 c -1.9e-4,-1.73265 -0.98415,-3.27894 -2.41276,-3.79154 -0.99491,-0.35698 -1.79551,-0.23345 -2.72016,0.42011 -0.24599,0.17379 -0.63049,0.31607 -0.8548,0.31607 -0.42369,0 -0.93234,-0.42467 -7.66826,-6.40276 l -2.26353,-2.00891 -0.003,-0.83018 c -0.001,-0.51544 -0.0935,-1.04045 -0.24192,-1.3847 -0.30979,-0.71832 -1.067,-1.50941 -1.74877,-1.82698 -0.29705,-0.13837 -0.61276,-0.34362 -0.70133,-0.45602 -0.11419,-0.14497 -0.33458,-0.20798 -0.61009,-0.20201 z m 2.52683,6.48884 0.74197,0.63505 c 0.4082,0.34926 2.57655,2.2385 4.81845,4.19844 l 4.07622,3.56366 v 0.77869 c 0,1.50563 0.67982,2.75226 1.85658,3.40497 0.33618,0.18647 0.61488,0.44532 0.64468,0.59887 0.0288,0.14872 0.0771,4.05633 0.10766,8.68365 0.0404,6.13641 0.0163,8.44536 -0.0889,8.53155 -0.0794,0.0651 -0.32488,0.18193 -0.54539,0.2599 -0.32106,0.11368 -0.46348,0.0974 -0.71438,-0.0817 -0.38649,-0.2759 -16.80956,-15.45988 -17.00199,-15.71934 -0.0762,-0.10276 -0.23895,-0.51788 -0.36135,-0.92234 -0.2308,-0.76241 -0.74305,-1.64471 -1.213641,-2.09077 -0.14944,-0.14167 -0.2718,-0.34011 -0.2718,-0.44097 0,-0.10084 1.132511,-2.49495 2.516541,-5.32013 1.9762,-4.03398 2.57567,-5.14915 2.79238,-5.19499 0.15187,-0.0321 0.52287,-0.087 0.82471,-0.12198 0.30187,-0.035 0.83444,-0.22103 1.18357,-0.41324 z m -6.70989,17.57352 c 0.16708,0 15.69433,14.23096 15.86736,14.54273 0.0594,0.1071 -0.0567,0.43469 -0.29339,0.82754 -0.45193,0.75026 -0.76805,1.7683 -0.76805,2.47417 0,0.26961 -0.0722,0.58977 -0.16056,0.7111 -0.0906,0.12453 -3.13985,1.28419 -6.9985,2.66192 -3.76097,1.34286 -6.91433,2.44169 -7.00724,2.44169 -0.093,0 -0.30228,-0.29971 -0.46517,-0.66594 -1.0056,-2.26094 -3.742871,-3.20309 -5.874861,-2.02212 l -0.72293,0.40057 -0.8438,-0.6126 c -0.46402,-0.33704 -1.854776,-1.36507 -3.090496,-2.28432 -2.499848,-1.85969 -2.385956,-1.68276 -2.008271,-3.1248 0.427251,-1.63124 0.216439,-3.55833 -0.559957,-5.1179 l -0.392905,-0.78924 0.637662,-0.76681 c 0.350689,-0.42186 1.996971,-2.19424 3.658724,-3.93862 l 3.021573,-3.17153 0.67829,0.26381 c 0.44306,0.17233 0.99414,0.2621 1.58974,0.25956 0.7657,-0.003 1.0484,-0.0751 1.76583,-0.44704 0.54631,-0.28321 1.02583,-0.659 1.330241,-1.04249 0.26173,-0.32978 0.5483,-0.59966 0.63664,-0.59966 z"
         style="fill:url(#linearGradient3139-8);fill-opacity:1;stroke-width:0.13174608" />
      <g
         id="text2936-6-3"
         style="font-style:normal;font-weight:normal;font-size:20.72507477px;line-height:1.25;font-family:sans-serif;letter-spacing:0px;word-spacing:0px;fill:#ffffff;fill-opacity:1;stroke:none;stroke-width:1.55438066"
         transform="scale(0.97448829,1.0261796)"
         aria-label="Logisticc">
        <path
           id="path9017"
           style="font-style:normal;font-variant:normal;font-weight:normal;font-stretch:normal;font-size:21.60061264px;font-family:'Microsoft New Tai Lue';-inkscape-font-specification:'Microsoft New Tai Lue';fill:#ffffff;fill-opacity:1;stroke-width:1.55438066"
           d="M 15.752916,284.33939 H 7.9058185 v -15.12465 h 1.7719253 v 13.52148 h 6.0751722 z" />
        <path
           id="path9019"
           style="font-style:normal;font-variant:normal;font-weight:normal;font-stretch:normal;font-size:21.60061264px;font-family:'Microsoft New Tai Lue';-inkscape-font-specification:'Microsoft New Tai Lue';fill:#ffffff;fill-opacity:1;stroke-width:1.55438066"
           d="m 22.355447,284.59252 q -2.394209,0 -3.828624,-1.50825 -1.423869,-1.51879 -1.423869,-4.01847 0,-2.72117 1.487152,-4.25051 1.487151,-1.52934 4.018473,-1.52934 2.415303,0 3.765341,1.48715 1.360586,1.48715 1.360586,4.12394 0,2.58406 -1.466057,4.14504 -1.45551,1.55044 -3.913002,1.55044 z m 0.126566,-9.85106 q -1.666453,0 -2.636794,1.13909 -0.97034,1.12855 -0.97034,3.12197 0,1.91958 0.980888,3.02703 0.980887,1.10746 2.626246,1.10746 1.677001,0 2.573511,-1.08636 0.907056,-1.08636 0.907056,-3.09032 0,-2.02506 -0.907056,-3.12197 -0.89651,-1.0969 -2.573511,-1.0969 z" />
        <path
           id="path9021"
           style="font-style:normal;font-variant:normal;font-weight:normal;font-stretch:normal;font-size:21.60061264px;font-family:'Microsoft New Tai Lue';-inkscape-font-specification:'Microsoft New Tai Lue';fill:#ffffff;fill-opacity:1;stroke-width:1.55438066"
           d="m 39.716096,283.47452 q 0,5.9486 -5.695474,5.9486 -2.003963,0 -3.501662,-0.75939 v -1.72974 q 1.824661,1.01253 3.480568,1.01253 3.986832,0 3.986832,-4.23996 v -1.18129 h -0.04219 q -1.234019,2.06725 -3.712605,2.06725 -2.014511,0 -3.24853,-1.43442 -1.223472,-1.44496 -1.223472,-3.87081 0,-2.75281 1.318397,-4.37708 1.328943,-1.62426 3.628227,-1.62426 2.183265,0 3.237983,1.75083 h 0.04219 v -1.4977 h 1.729736 z m -1.729736,-4.01848 v -1.59262 q 0,-1.28675 -0.875416,-2.20436 -0.864868,-0.9176 -2.162171,-0.9176 -1.60317,0 -2.510227,1.17073 -0.907057,1.16019 -0.907057,3.25908 0,1.80357 0.864868,2.88993 0.875416,1.07581 2.309831,1.07581 1.45551,0 2.362567,-1.03362 0.917605,-1.03363 0.917605,-2.64735 z" />
        <path
           id="path9023"
           style="font-style:normal;font-variant:normal;font-weight:normal;font-stretch:normal;font-size:21.60061264px;font-family:'Microsoft New Tai Lue';-inkscape-font-specification:'Microsoft New Tai Lue';fill:#ffffff;fill-opacity:1;stroke-width:1.55438066"
           d="m 44.124814,270.79681 q -0.464075,0 -0.791038,-0.31641 -0.326962,-0.31642 -0.326962,-0.80159 0,-0.48517 0.326962,-0.80158 0.326963,-0.32696 0.791038,-0.32696 0.474623,0 0.801586,0.32696 0.337509,0.31641 0.337509,0.80158 0,0.46408 -0.337509,0.79104 -0.326963,0.32696 -0.801586,0.32696 z m 0.843774,13.54258 h -1.729736 v -10.80031 h 1.729736 z" />
        <path
           id="path9025"
           style="font-style:normal;font-variant:normal;font-weight:normal;font-stretch:normal;font-size:21.60061264px;font-family:'Microsoft New Tai Lue';-inkscape-font-specification:'Microsoft New Tai Lue';fill:#ffffff;fill-opacity:1;stroke-width:1.55438066"
           d="m 47.816327,283.94914 v -1.8563 q 1.413321,1.04417 3.111416,1.04417 2.27819,0 2.27819,-1.51879 0,-0.43244 -0.200397,-0.72776 -0.189849,-0.30587 -0.527358,-0.53791 -0.326963,-0.23203 -0.780491,-0.41134 -0.442982,-0.18984 -0.959793,-0.39024 -0.717208,-0.28477 -1.265661,-0.56955 -0.537906,-0.29532 -0.907057,-0.65392 -0.358604,-0.36915 -0.548453,-0.83323 -0.179302,-0.46408 -0.179302,-1.08636 0,-0.7594 0.348057,-1.33949 0.348056,-0.59064 0.928151,-0.98089 0.580095,-0.40079 1.318397,-0.60119 0.748849,-0.20039 1.539887,-0.20039 1.402774,0 2.510228,0.48517 v 1.75083 q -1.191831,-0.78049 -2.742266,-0.78049 -0.48517,0 -0.875415,0.11602 -0.390246,0.10547 -0.675019,0.30586 -0.274227,0.2004 -0.432434,0.48517 -0.147661,0.27423 -0.147661,0.61174 0,0.42189 0.147661,0.70666 0.158207,0.28477 0.453528,0.50627 0.295321,0.22149 0.717208,0.40079 0.421887,0.1793 0.959793,0.39024 0.717208,0.27423 1.286755,0.56955 0.569547,0.28477 0.97034,0.65393 0.400793,0.3586 0.611736,0.83322 0.221491,0.47463 0.221491,1.12855 0,0.80159 -0.358604,1.39223 -0.348057,0.59064 -0.938699,0.98088 -0.590641,0.39025 -1.360585,0.5801 -0.769944,0.18985 -1.613718,0.18985 -1.666453,0 -2.889925,-0.64338 z" />
        <path
           id="path9027"
           style="font-style:normal;font-variant:normal;font-weight:normal;font-stretch:normal;font-size:21.60061264px;font-family:'Microsoft New Tai Lue';-inkscape-font-specification:'Microsoft New Tai Lue';fill:#ffffff;fill-opacity:1;stroke-width:1.55438066"
           d="m 62.635104,284.23391 q -0.611736,0.33751 -1.613717,0.33751 -2.83719,0 -2.83719,-3.16415 v -6.39159 h -1.856303 v -1.4766 h 1.856303 v -2.63679 l 1.729737,-0.559 v 3.19579 h 2.72117 v 1.4766 h -2.72117 v 6.08572 q 0,1.08636 0.369151,1.55044 0.369151,0.46407 1.223472,0.46407 0.653925,0 1.128547,-0.3586 z" />
        <path
           id="path9029"
           style="font-style:normal;font-variant:normal;font-weight:normal;font-stretch:normal;font-size:21.60061264px;font-family:'Microsoft New Tai Lue';-inkscape-font-specification:'Microsoft New Tai Lue';fill:#ffffff;fill-opacity:1;stroke-width:1.55438066"
           d="m 65.851995,270.79681 q -0.464076,0 -0.791038,-0.31641 -0.326963,-0.31642 -0.326963,-0.80159 0,-0.48517 0.326963,-0.80158 0.326962,-0.32696 0.791038,-0.32696 0.474623,0 0.801585,0.32696 0.33751,0.31641 0.33751,0.80158 0,0.46408 -0.33751,0.79104 -0.326962,0.32696 -0.801585,0.32696 z m 0.843774,13.54258 h -1.729737 v -10.80031 h 1.729737 z" />
        <path
           id="path9031"
           style="font-style:normal;font-variant:normal;font-weight:normal;font-stretch:normal;font-size:21.60061264px;font-family:'Microsoft New Tai Lue';-inkscape-font-specification:'Microsoft New Tai Lue';fill:#ffffff;fill-opacity:1;stroke-width:1.55438066"
           d="m 77.559356,283.84367 q -1.244567,0.74885 -2.953209,0.74885 -2.309831,0 -3.7337,-1.4977 -1.413321,-1.50825 -1.413321,-3.90245 0,-2.66844 1.52934,-4.28216 1.52934,-1.62426 4.081756,-1.62426 1.423869,0 2.510228,0.52736 v 1.77192 q -1.202378,-0.84377 -2.573511,-0.84377 -1.655906,0 -2.721171,1.19183 -1.054717,1.18128 -1.054717,3.11141 0,1.8985 0.991434,2.9954 1.001982,1.09691 2.678983,1.09691 1.413321,0 2.657888,-0.9387 z" />
        <path
           id="path9033"
           style="font-style:normal;font-variant:normal;font-weight:normal;font-stretch:normal;font-size:21.60061264px;font-family:'Microsoft New Tai Lue';-inkscape-font-specification:'Microsoft New Tai Lue';fill:#ffffff;fill-opacity:1;stroke-width:1.55438066"
           d="m 87.558078,283.84367 q -1.244567,0.74885 -2.953209,0.74885 -2.309831,0 -3.7337,-1.4977 -1.413321,-1.50825 -1.413321,-3.90245 0,-2.66844 1.52934,-4.28216 1.52934,-1.62426 4.081757,-1.62426 1.423868,0 2.510227,0.52736 v 1.77192 q -1.202378,-0.84377 -2.573511,-0.84377 -1.655906,0 -2.72117,1.19183 -1.054718,1.18128 -1.054718,3.11141 0,1.8985 0.991435,2.9954 1.001981,1.09691 2.678982,1.09691 1.413321,0 2.657888,-0.9387 z" />
      </g>
    </g>
  </g>
</svg>
